# xmcd
#
# Track frame offsets:
#	150
#	11795
#	28162
#	41240
#	56900
#	68832
#	107710
#	125297
#	147620
#	151360
#	170700
#	188182
#
# Disc length: 2887 seconds
#
# Revision: 1
# Processed by: cddbd v1.4PL0 Copyright (c) Steve Scherf et al.
# Submitted via: audiograbber 1.80
#
DISCID=b50b450c
DTITLE=Stuffed - CD
DYEAR=1900
DGENRE=
TTITLE0=Phonecall Thing
TTITLE1=Spotless hands
TTITLE2=Self-pity
TTITLE3=One more drink
TTITLE4=Schizophrenic heart
TTITLE5=She breaks me
TTITLE6=Building walls
TTITLE7=Insomnia
TTITLE8=Lichtensteins garden
TTITLE9=Back
TTITLE10=Eat your way out
TTITLE11=Smalltown Suicide
EXTD=
EXTT0=
EXTT1=
EXTT2=
EXTT3=
EXTT4=
EXTT5=
EXTT6=
EXTT7=
EXTT8=
EXTT9=
EXTT10=
EXTT11=
PLAYORDER=
